<?xml version="1.0" encoding="UTF-8" standalone="no"?>
<!-- Created with Inkscape (http://www.inkscape.org/) -->

<svg
   xmlns:dc="http://purl.org/dc/elements/1.1/"
   xmlns:cc="http://creativecommons.org/ns#"
   xmlns:rdf="http://www.w3.org/1999/02/22-rdf-syntax-ns#"
   xmlns:svg="http://www.w3.org/2000/svg"
   xmlns="http://www.w3.org/2000/svg"
   xmlns:xlink="http://www.w3.org/1999/xlink"
   xmlns:sodipodi="http://sodipodi.sourceforge.net/DTD/sodipodi-0.dtd"
   xmlns:inkscape="http://www.inkscape.org/namespaces/inkscape"
   width="210mm"
   height="297mm"
   viewBox="0 0 210 297"
   version="1.1"
   id="svg901"
   inkscape:version="0.92.5 (2060ec1f9f, 2020-04-08)"
   sodipodi:docname="pieces.svg">
  <defs
     id="defs895">
    <linearGradient
       inkscape:collect="always"
       id="linearGradient1529">
      <stop
         style="stop-color:#bb0f0f;stop-opacity:1;"
         offset="0"
         id="stop1525" />
      <stop
         style="stop-color:#ff8080;stop-opacity:1"
         offset="1"
         id="stop1527" />
    </linearGradient>
    <linearGradient
       inkscape:collect="always"
       id="linearGradient1485">
      <stop
         style="stop-color:#000000;stop-opacity:1;"
         offset="0"
         id="stop1481" />
      <stop
         style="stop-color:#000000;stop-opacity:0;"
         offset="1"
         id="stop1483" />
    </linearGradient>
    <linearGradient
       inkscape:collect="always"
       xlink:href="#linearGradient1485"
       id="linearGradient1487"
       x1="168.70146"
       y1="416.87363"
       x2="143.03993"
       y2="361.82031"
       gradientUnits="userSpaceOnUse"
       gradientTransform="matrix(0.23815362,0,0,0.23772257,3.5846065,11.111673)" />
    <linearGradient
       inkscape:collect="always"
       xlink:href="#linearGradient1529"
       id="linearGradient1531"
       x1="53.072193"
       y1="108.56054"
       x2="58.575527"
       y2="96.718964"
       gradientUnits="userSpaceOnUse"
       gradientTransform="matrix(0.80864069,-0.7665669,0.76723076,0.80639302,-70.638332,63.486386)" />
    <filter
       inkscape:collect="always"
       style="color-interpolation-filters:sRGB"
       id="filter1556"
       x="-0.024000607"
       width="1.0480012"
       y="-0.023999393"
       height="1.0479988">
      <feGaussianBlur
         inkscape:collect="always"
         stdDeviation="0.10319527"
         id="feGaussianBlur1558" />
    </filter>
    <filter
       inkscape:collect="always"
       style="color-interpolation-filters:sRGB"
       id="filter1618"
       x="-0.023971145"
       width="1.0479423"
       y="-0.024028925"
       height="1.0480578">
      <feGaussianBlur
         inkscape:collect="always"
         stdDeviation="0.089375115"
         id="feGaussianBlur1620" />
    </filter>
  </defs>
  <sodipodi:namedview
     id="base"
     pagecolor="#ffffff"
     bordercolor="#666666"
     borderopacity="1.0"
     inkscape:pageopacity="0.0"
     inkscape:pageshadow="2"
     inkscape:zoom="7.9195959"
     inkscape:cx="296.12276"
     inkscape:cy="713.94621"
     inkscape:document-units="mm"
     inkscape:current-layer="layer1"
     showgrid="false"
     inkscape:window-width="3440"
     inkscape:window-height="1348"
     inkscape:window-x="0"
     inkscape:window-y="27"
     inkscape:window-maximized="1" />
  <metadata
     id="metadata898">
    <rdf:RDF>
      <cc:Work
         rdf:about="">
        <dc:format>image/svg+xml</dc:format>
        <dc:type
           rdf:resource="http://purl.org/dc/dcmitype/StillImage" />
        <dc:title></dc:title>
      </cc:Work>
    </rdf:RDF>
  </metadata>
  <g
     inkscape:label="Layer 1"
     inkscape:groupmode="layer"
     id="layer1">
    <g
       id="g1624"
       transform="translate(5.2785737,0.46772164)"
       inkscape:export-xdpi="95.374298"
       inkscape:export-ydpi="95.374298">
      <path
         style="opacity:0.51300001;fill:#000000;fill-opacity:0.99507392;fill-rule:nonzero;stroke:none;stroke-width:0.40261623;stroke-linecap:square;stroke-linejoin:miter;stroke-miterlimit:4;stroke-dasharray:none;stroke-dashoffset:0;stroke-opacity:1;filter:url(#filter1618)"
         d="m 49.59962,101.59053 2.537456,2.66697 -2.674414,2.53525 1.75243,1.84188 2.674413,-2.53525 2.537457,2.66697 1.847016,-1.75093 -2.537459,-2.66697 2.674413,-2.53525 -1.752429,-1.841883 -2.674412,2.535253 -2.537456,-2.666973 z"
         id="path1588"
         inkscape:connector-curvature="0" />
      <path
         inkscape:connector-curvature="0"
         id="rect1508"
         d="m 49.070453,100.53219 2.537456,2.66697 -2.674414,2.53525 1.75243,1.84188 2.674413,-2.53525 2.537457,2.66697 1.847016,-1.75093 -2.537459,-2.66697 2.674413,-2.53525 -1.752429,-1.841877 -2.674412,2.535247 -2.537456,-2.666967 z"
         style="opacity:1;fill:#b80606;fill-opacity:1;fill-rule:nonzero;stroke:url(#linearGradient1531);stroke-width:0.26458332;stroke-linecap:square;stroke-linejoin:miter;stroke-miterlimit:4;stroke-dasharray:none;stroke-dashoffset:0;stroke-opacity:1" />
    </g>
    <g
       id="g1632"
       inkscape:export-xdpi="93.480003"
       inkscape:export-ydpi="93.480003">
      <path
         id="path1456"
         d="m 40.645404,99.002164 a 4.6444212,4.6360149 0 0 0 -4.643996,4.636056 4.6444212,4.6360149 0 0 0 4.643996,4.63605 4.6444212,4.6360149 0 0 0 4.64446,-4.63605 4.6444212,4.6360149 0 0 0 -4.64446,-4.636056 z m 0,2.469156 a 2.1707417,2.1668128 0 0 1 2.170825,2.1669 2.1707417,2.1668128 0 0 1 -2.170825,2.1669 2.1707417,2.1668128 0 0 1 -2.170361,-2.1669 2.1707417,2.1668128 0 0 1 2.170361,-2.1669 z"
         style="opacity:0.98699999;fill:#000000;fill-opacity:1;fill-rule:nonzero;stroke:url(#linearGradient1487);stroke-width:0.23708798;stroke-linecap:square;stroke-linejoin:miter;stroke-miterlimit:4;stroke-dasharray:none;stroke-dashoffset:0;stroke-opacity:1"
         inkscape:connector-curvature="0" />
      <path
         transform="matrix(0.9001082,0,0,0.89847902,3.0554398,11.111673)"
         inkscape:connector-curvature="0"
         style="opacity:0.51000001;fill:#000000;fill-opacity:1;fill-rule:nonzero;stroke:none;stroke-width:0.26363814;stroke-linecap:square;stroke-linejoin:miter;stroke-miterlimit:4;stroke-dasharray:none;stroke-dashoffset:0;stroke-opacity:1;filter:url(#filter1556)"
         d="m 42.232048,98.879752 a 5.1598477,5.1598477 0 0 0 -5.159375,5.159898 5.1598477,5.1598477 0 0 0 5.159375,5.15989 5.1598477,5.1598477 0 0 0 5.159891,-5.15989 5.1598477,5.1598477 0 0 0 -5.159891,-5.159898 z m 0,2.748158 a 2.4116454,2.4116454 0 0 1 2.411738,2.41174 2.4116454,2.4116454 0 0 1 -2.411738,2.41174 2.4116454,2.4116454 0 0 1 -2.411222,-2.41174 2.4116454,2.4116454 0 0 1 2.411222,-2.41174 z"
         id="path1540" />
    </g>
  </g>
</svg>
